Run_40002
nRows=4
nColumns=164

# SIMM Motion File Header:
name Run_40002
datacolumns 164
datarows 4
otherdata 1
range 4.05000000 4.08000000
endheader
time	pelvis_tilt	pelvis_list	pelvis_rotation	pelvis_tx	pelvis_ty	pelvis_tz	hip_flexion_r	hip_adduction_r	hip_rotation_r	knee_angle_r	ankle_angle_r	hip_flexion_l	hip_adduction_l	hip_rotation_l	knee_angle_l	ankle_angle_l	lumbar_extension	lumbar_bending	lumbar_rotation	arm_flex_r	arm_add_r	arm_rot_r	elbow_flex_r	pro_sup_r	arm_flex_l	arm_add_l	arm_rot_l	elbow_flex_l	pro_sup_l	subtalar_angle_r	mtp_angle_r	subtalar_angle_l	mtp_angle_l	wrist_flex_r	wrist_dev_r	wrist_flex_l	wrist_dev_l	LASI_tx	LASI_ty	LASI_tz	RASI_tx	RASI_ty	RASI_tz	LPSI_tx	LPSI_ty	LPSI_tz	RPSI_tx	RPSI_ty	RPSI_tz	RTH1_tx	RTH1_ty	RTH1_tz	RTH2_tx	RTH2_ty	RTH2_tz	RTH3_tx	RTH3_ty	RTH3_tz	LTH1_tx	LTH1_ty	LTH1_tz	LTH2_tx	LTH2_ty	LTH2_tz	LTH3_tx	LTH3_ty	LTH3_tz	RTB1_tx	RTB1_ty	RTB1_tz	RTB2_tx	RTB2_ty	RTB2_tz	RTB3_tx	RTB3_ty	RTB3_tz	LTB1_tx	LTB1_ty	LTB1_tz	LTB2_tx	LTB2_ty	LTB2_tz	LTB3_tx	LTB3_ty	LTB3_tz	RCAL_tx	RCAL_ty	RCAL_tz	RTOE_tx	RTOE_ty	RTOE_tz	RMT5_tx	RMT5_ty	RMT5_tz	LCAL_tx	LCAL_ty	LCAL_tz	LTOE_tx	LTOE_ty	LTOE_tz	LMT5_tx	LMT5_ty	LMT5_tz	LACR_tx	LACR_ty	LACR_tz	RACR_tx	RACR_ty	RACR_tz	CLAV_tx	CLAV_ty	CLAV_tz	C7_tx	C7_ty	C7_tz	RUA1_tx	RUA1_ty	RUA1_tz	RUA2_tx	RUA2_ty	RUA2_tz	RUA3_tx	RUA3_ty	RUA3_tz	RLEL_tx	RLEL_ty	RLEL_tz	RMEL_tx	RMEL_ty	RMEL_tz	LUA1_tx	LUA1_ty	LUA1_tz	LUA2_tx	LUA2_ty	LUA2_tz	LUA3_tx	LUA3_ty	LUA3_tz	LLEL_tx	LLEL_ty	LLEL_tz	LMEL_tx	LMEL_ty	LMEL_tz	RFAsuperior_tx	RFAsuperior_ty	RFAsuperior_tz	RFAradius_tx	RFAradius_ty	RFAradius_tz	RFAulna_tx	RFAulna_ty	RFAulna_tz	LFAsuperior_tx	LFAsuperior_ty	LFAsuperior_tz	LFAradius_tx	LFAradius_ty	LFAradius_tz	LFAulna_tx	LFAulna_ty	LFAulna_tz
      4.05000000	    -14.82140149	      4.87909527	      6.48149072	      0.92317557	      0.96003630	     -0.37134854	     25.11458531	     -7.88484878	     -2.57219159	   -110.13016242	     -1.44714953	     38.36888580	     14.18310741	     -1.83970289	    -43.78072756	     18.43929581	      0.01815766	     -7.40995110	     -2.19322445	    -31.28846059	    -22.68896911	     -5.97474658	     91.19313624	    117.48132818	    -29.27890910	    -14.54656987	    -10.84715868	    111.29430039	    100.67078361	      0.00000000	      0.00000000	      0.00000000	      0.00000000	      0.00000000	      0.00000000	      0.00000000	      0.00000000	      0.93372186	      1.01253228	     -0.49265007	      0.95450673	      0.99050385	     -0.24393992	      0.78143376	      1.06986471	     -0.40892475	      0.79172364	      1.05984450	     -0.29601583	      0.88150815	      0.87402656	     -0.19957217	      0.83961749	      0.72868682	     -0.20751841	      0.89725811	      0.57824218	     -0.21030788	      0.88121936	      0.88651154	     -0.54497433	      0.86395932	      0.72407052	     -0.48792973	      0.95612213	      0.61224865	     -0.48614421	      0.78674884	      0.42918606	     -0.27331086	      0.74459460	      0.51410192	     -0.20074652	      0.60106527	      0.47415961	     -0.27415562	      1.02908882	      0.40003072	     -0.40369412	      0.91745019	      0.31341513	     -0.44484141	      0.93660731	      0.20141705	     -0.37476914	      0.49108329	      0.60669572	     -0.27035040	      0.43267445	      0.37153997	     -0.29126503	      0.41272293	      0.42266319	     -0.20062699	      0.77206873	      0.10198113	     -0.33412123	      1.00972639	      0.07275914	     -0.33634992	      0.95412006	      0.03727289	     -0.42928772	      0.92339833	      1.48093812	     -0.53669856	      0.97571178	      1.46780075	     -0.21341279	      1.01847100	      1.43498304	     -0.35030821	      0.89209263	      1.50730878	     -0.37440014	      0.86128625	      1.39487023	     -0.13738346	      0.89644670	      1.33298058	     -0.10247148	      0.82102895	      1.28069601	     -0.04655405	      0.78150394	      1.23665586	     -0.00786733	      0.75762765	      1.20338498	     -0.08858974	      0.81493990	      1.38980275	     -0.57977609	      0.83339247	      1.30942504	     -0.60577486	      0.75206022	      1.25308311	     -0.62320631	      0.72362777	      1.19234003	     -0.64197372	      0.71977862	      1.17096888	     -0.55375139	      0.84772122	      1.14503909	     -0.01482574	      0.95013113	      1.03754538	     -0.12258850	      0.92499130	      1.01411502	     -0.06377866	      0.78362645	      1.13138741	     -0.64569840	      0.96176024	      1.11486822	     -0.57689644	      0.94313445	      1.05334787	     -0.60771923
      4.06000000	    -14.74423879	      5.00356115	      5.90513872	      0.92086917	      0.95781215	     -0.37088799	     28.91370734	     -8.07189666	     -1.27427009	   -112.18721362	      0.02058645	     36.06254693	     14.25587939	     -1.24825461	    -44.37620053	     21.15116471	     -0.24631989	     -7.39456912	     -2.77952759	    -32.41175862	    -22.93192985	     -6.09173302	     89.81482137	    116.95935356	    -26.83712492	    -14.84236671	    -10.20392250	    109.73062855	    100.89533496	      0.00000000	      0.00000000	      0.00000000	      0.00000000	      0.00000000	      0.00000000	      0.00000000	      0.00000000	      0.93263819	      1.01094881	     -0.49440966	      0.95043229	      0.98912738	     -0.24292598	      0.78029428	      1.06835823	     -0.41083406	      0.78850553	      1.05799656	     -0.29795792	      0.87998118	      0.87282248	     -0.19817712	      0.84780644	      0.72584170	     -0.20636491	      0.91620761	      0.57948001	     -0.20859590	      0.88063806	      0.88353165	     -0.54361400	      0.85444846	      0.72173681	     -0.48644873	      0.94222938	      0.60577839	     -0.48328980	      0.81414884	      0.42788498	     -0.27316164	      0.76876062	      0.50964522	     -0.19788332	      0.62671299	      0.46877302	     -0.27370422	      1.00556732	      0.39018939	     -0.40081937	      0.89078262	      0.30840489	     -0.44267535	      0.90280346	      0.19646707	     -0.37276415	      0.51083302	      0.59784343	     -0.26942385	      0.46403777	      0.35991761	     -0.28795971	      0.44475009	      0.41040193	     -0.19640469	      0.73305751	      0.10286544	     -0.33407853	      0.97044170	      0.07148247	     -0.33594332	      0.91469715	      0.03754599	     -0.43011624	      0.92447836	      1.47745346	     -0.53707719	      0.97286063	      1.46480675	     -0.21257898	      1.01738577	      1.43206313	     -0.34887416	      0.89124106	      1.50477536	     -0.37447076	      0.85582821	      1.39391170	     -0.13796193	      0.88884207	      1.33238333	     -0.10229133	      0.80989028	      1.28361636	     -0.04753905	      0.76887541	      1.24050051	     -0.00887636	      0.74594408	      1.20642761	     -0.08903602	      0.81844929	      1.38164387	     -0.57908626	      0.84080380	      1.30282660	     -0.60735200	      0.76226117	      1.24332629	     -0.62715110	      0.73773144	      1.18131294	     -0.64730581	      0.73186431	      1.15950669	     -0.55926099	      0.83217175	      1.14602687	     -0.01248153	      0.93287411	      1.03171160	     -0.11587518	      0.90434557	      1.01066835	     -0.05723335	      0.79967618	      1.12186046	     -0.64953797	      0.97523821	      1.10618415	     -0.57530688	      0.95770465	      1.04463786	     -0.60667293
      4.07000000	    -14.61723479	      5.14868533	      5.29012083	      0.91897649	      0.95746411	     -0.37039724	     32.65248969	     -8.10063943	      0.01206747	   -113.36757322	      1.31711006	     33.30964988	     14.30230148	     -0.75831169	    -44.27233156	     23.23895566	     -0.51507522	     -7.37119755	     -3.49249591	    -33.65700205	    -23.30105920	     -6.14132368	     89.50090982	    115.53555440	    -25.03211525	    -14.96924634	    -10.13106837	    109.37275686	    101.46177611	      0.00000000	      0.00000000	      0.00000000	      0.00000000	      0.00000000	      0.00000000	      0.00000000	      0.00000000	      0.93160731	      1.01134816	     -0.49639234	      0.94666940	      0.98863036	     -0.24123489	      0.77921113	      1.06883570	     -0.41296826	      0.78526164	      1.05781333	     -0.30024500	      0.87911254	      0.87316358	     -0.19506956	      0.85588210	      0.72553777	     -0.20544842	      0.93545685	      0.58391813	     -0.20732890	      0.87972505	      0.88164168	     -0.54239805	      0.84422624	      0.72102499	     -0.48660295	      0.92717895	      0.60066284	     -0.48130449	      0.84235454	      0.42823319	     -0.27282594	      0.79304022	      0.50609239	     -0.19642145	      0.65220771	      0.46245386	     -0.27336584	      0.98001320	      0.38251953	     -0.39781261	      0.86243390	      0.30581532	     -0.44073223	      0.86833314	      0.19364139	     -0.37111619	      0.52918101	      0.58602280	     -0.26783441	      0.49748283	      0.34558852	     -0.28580807	      0.47748643	      0.39467822	     -0.19328478	      0.69397927	      0.10456065	     -0.33376794	      0.93092279	      0.07083318	     -0.33543882	      0.87479362	      0.03815211	     -0.43039726	      0.92663129	      1.47613914	     -0.53687477	      0.96950178	      1.46407831	     -0.21156071	      1.01600654	      1.43073545	     -0.34710127	      0.88983502	      1.50343780	     -0.37470286	      0.84949163	      1.39550784	     -0.13889074	      0.88053011	      1.33468601	     -0.10190381	      0.79874248	      1.28919345	     -0.04856766	      0.75601735	      1.24697717	     -0.01003999	      0.73424717	      1.21256140	     -0.09008547	      0.82178898	      1.37740279	     -0.57919235	      0.84731980	      1.30021957	     -0.60920060	      0.77153470	      1.23793600	     -0.63000786	      0.75062205	      1.17483939	     -0.65131778	      0.74300708	      1.15261151	     -0.56335174	      0.81670482	      1.15050012	     -0.01091664	      0.91746014	      1.03206702	     -0.11075976	      0.88529594	      1.01219946	     -0.05314535	      0.81486242	      1.11743255	     -0.65204356	      0.98814967	      1.10412065	     -0.57306665	      0.97244571	      1.04249497	     -0.60534018
      4.08000000	    -14.51668863	      5.28003979	      4.64296574	      0.91761953	      0.95866481	     -0.37002893	     36.30655239	     -7.98886958	      1.24842777	   -113.68196490	      2.31944917	     30.19513902	     14.27990667	     -0.37812570	    -43.47988408	     24.52413238	     -0.66149499	     -7.32171816	     -4.35002925	    -34.98573368	    -23.83630551	     -6.14038748	     90.15786013	    113.45593480	    -24.02582700	    -14.85730919	    -10.61355171	    110.36212969	    101.78829056	      0.00000000	      0.00000000	      0.00000000	      0.00000000	      0.00000000	      0.00000000	      0.00000000	      0.00000000	      0.93101156	      1.01304553	     -0.49833824	      0.94315123	      0.98909197	     -0.23940533	      0.77856803	      1.07060964	     -0.41507341	      0.78246210	      1.05909795	     -0.30252291	      0.87900057	      0.87493133	     -0.19196829	      0.86369607	      0.72778685	     -0.20493695	      0.95425102	      0.59148804	     -0.20653713	      0.87789832	      0.88059890	     -0.54192182	      0.83396409	      0.72139003	     -0.48817892	      0.91108518	      0.59711439	     -0.48016742	      0.87028819	      0.43070253	     -0.27226529	      0.81688024	      0.50446270	     -0.19584670	      0.67802201	      0.45510936	     -0.27271249	      0.95241868	      0.37702797	     -0.39526838	      0.83208018	      0.30551630	     -0.43945690	      0.83297618	      0.19276999	     -0.37030584	      0.54646662	      0.57112513	     -0.26567559	      0.53274950	      0.32909483	     -0.28445905	      0.51036942	      0.37609667	     -0.19126661	      0.65478088	      0.10738074	     -0.33375045	      0.89110988	      0.07060791	     -0.33516333	      0.83420294	      0.03834930	     -0.42980022	      0.92976849	      1.47689550	     -0.53638750	      0.96534464	      1.46579715	     -0.21052377	      1.01441033	      1.43128520	     -0.34510231	      0.88843682	      1.50391714	     -0.37538790	      0.84229335	      1.39953268	     -0.14047243	      0.87155286	      1.33979399	     -0.10132242	      0.78763322	      1.29692599	     -0.04958500	      0.74311084	      1.25560913	     -0.01145235	      0.72280950	      1.22120646	     -0.09190090	      0.82607917	      1.37674983	     -0.58076807	      0.85340768	      1.30064137	     -0.61082936	      0.77950263	      1.23655992	     -0.63180709	      0.76137755	      1.17268764	     -0.65402413	      0.75232348	      1.14996820	     -0.56618796	      0.80171547	      1.15795396	     -0.01025368	      0.90422826	      1.03798596	     -0.10703408	      0.86850922	      1.01819407	     -0.05131019	      0.82778349	      1.11732491	     -0.65307440	      0.99949185	      1.10926235	     -0.57037098	      0.98645302	      1.04714001	     -0.60311438
